<svg width="926" height="651" viewBox="0 0 926 651" fill="none" xmlns="http://www.w3.org/2000/svg">
<g id="undraw_social_serenity 1" clip-path="url(#clip0)">
<g id="msgBox4">
<path id="Path 141" d="M385.749 651.001H79.0675C77.5619 650.999 76.1186 650.387 75.054 649.299C73.9894 648.211 73.3905 646.735 73.3885 645.197V377.147C73.3905 375.608 73.9894 374.133 75.054 373.044C76.1186 371.956 77.5619 371.344 79.0675 371.342H385.749C387.254 371.344 388.697 371.956 389.762 373.044C390.827 374.133 391.426 375.608 391.428 377.147V645.195C391.426 646.734 390.827 648.21 389.762 649.298C388.698 650.386 387.254 650.998 385.749 651V651.001ZM79.0675 373.659C78.1652 373.661 77.3004 374.029 76.6623 374.681C76.0243 375.333 75.665 376.217 75.6631 377.139V645.195C75.665 646.118 76.0243 647.002 76.6623 647.654C77.3004 648.306 78.1652 648.673 79.0675 648.675H385.749C386.651 648.673 387.516 648.306 388.154 647.654C388.792 647.002 389.151 646.118 389.153 645.195V377.147C389.151 376.224 388.792 375.34 388.154 374.688C387.516 374.036 386.651 373.669 385.749 373.667L79.0675 373.659Z" fill="#CCCCCC"/>
<path id="Ellipse 19" d="M126.719 626.98C139.495 626.98 149.853 616.393 149.853 603.334C149.853 590.275 139.495 579.689 126.719 579.689C113.942 579.689 103.585 590.275 103.585 603.334C103.585 616.393 113.942 626.98 126.719 626.98Z" fill="#CCCCCC"/>
<path id="Path 142" d="M180.149 587.57C179.126 587.57 178.145 587.986 177.422 588.725C176.699 589.464 176.293 590.466 176.293 591.511C176.293 592.556 176.699 593.559 177.422 594.298C178.145 595.037 179.126 595.452 180.149 595.452H361.919C362.941 595.452 363.922 595.037 364.645 594.298C365.368 593.559 365.774 592.556 365.774 591.511C365.774 590.466 365.368 589.464 364.645 588.725C363.922 587.986 362.941 587.57 361.919 587.57H180.149Z" fill="#CCCCCC"/>
<path id="Path 143" d="M180.149 611.217C179.126 611.217 178.145 611.632 177.422 612.371C176.699 613.11 176.293 614.112 176.293 615.157C176.293 616.203 176.699 617.205 177.422 617.944C178.145 618.683 179.126 619.098 180.149 619.098H258.365C259.388 619.098 260.368 618.683 261.091 617.944C261.814 617.205 262.221 616.203 262.221 615.157C262.221 614.112 261.814 613.11 261.091 612.371C260.368 611.632 259.388 611.217 258.365 611.217H180.149Z" fill="#CCCCCC"/>
</g>
<g id="msgBox5">
<path id="Path 154" d="M458.613 557.508H151.93C150.425 557.507 148.981 556.895 147.917 555.806C146.852 554.718 146.253 553.243 146.251 551.704V414.142C146.253 412.603 146.852 411.127 147.917 410.039C148.981 408.951 150.425 408.339 151.93 408.337H458.613C460.118 408.339 461.562 408.951 462.626 410.039C463.691 411.127 464.29 412.603 464.292 414.142V551.704C464.29 553.243 463.691 554.718 462.626 555.806C461.562 556.895 460.118 557.507 458.613 557.508V557.508Z" fill="#6C63FF"/>
<path id="Path 155" d="M214.386 456.284C213.364 456.284 212.383 456.7 211.66 457.439C210.937 458.178 210.531 459.18 210.531 460.225C210.531 461.27 210.937 462.273 211.66 463.012C212.383 463.751 213.364 464.166 214.386 464.166H396.158C397.18 464.166 398.161 463.751 398.884 463.012C399.607 462.273 400.013 461.27 400.013 460.225C400.013 459.18 399.607 458.178 398.884 457.439C398.161 456.7 397.18 456.284 396.158 456.284H214.386Z" fill="white"/>
<path id="Path 156" d="M214.386 479.12C213.364 479.12 212.383 479.535 211.66 480.274C210.937 481.013 210.531 482.015 210.531 483.06C210.531 484.106 210.937 485.108 211.66 485.847C212.383 486.586 213.364 487.001 214.386 487.001H396.158C397.18 487.001 398.161 486.586 398.884 485.847C399.607 485.108 400.013 484.106 400.013 483.06C400.013 482.015 399.607 481.013 398.884 480.274C398.161 479.535 397.18 479.12 396.158 479.12H214.386Z" fill="white"/>
<path id="Path 157" d="M214.386 501.679C213.364 501.679 212.383 502.094 211.66 502.833C210.937 503.572 210.531 504.574 210.531 505.619C210.531 506.665 210.937 507.667 211.66 508.406C212.383 509.145 213.364 509.56 214.386 509.56H292.603C293.625 509.56 294.606 509.145 295.329 508.406C296.052 507.667 296.458 506.665 296.458 505.619C296.458 504.574 296.052 503.572 295.329 502.833C294.606 502.094 293.625 501.679 292.603 501.679H214.386Z" fill="white"/>
</g>
<g id="msgBox3">
<path id="Path 138" d="M803.852 648.366H497.171C495.665 648.364 494.222 647.752 493.157 646.664C492.093 645.576 491.494 644.101 491.492 642.562V564.805C491.494 563.266 492.093 561.791 493.157 560.703C494.222 559.615 495.665 559.002 497.171 559H803.852C805.357 559.002 806.801 559.615 807.865 560.703C808.93 561.791 809.529 563.266 809.531 564.805V642.561C809.529 644.1 808.93 645.575 807.866 646.664C806.801 647.752 805.358 648.364 803.852 648.366V648.366ZM497.171 561.318C496.268 561.32 495.404 561.687 494.766 562.339C494.128 562.991 493.768 563.875 493.766 564.797V642.553C493.768 643.475 494.128 644.359 494.766 645.011C495.404 645.664 496.268 646.031 497.171 646.033H803.852C804.754 646.031 805.619 645.664 806.257 645.012C806.895 644.36 807.255 643.475 807.256 642.553V564.805C807.255 563.882 806.895 562.998 806.257 562.346C805.619 561.694 804.754 561.327 803.852 561.325L497.171 561.318Z" fill="#CCCCCC"/>
<path id="Ellipse 18" d="M544.823 624.345C557.599 624.345 567.957 613.758 567.957 600.7C567.957 587.641 557.599 577.054 544.823 577.054C532.046 577.054 521.689 587.641 521.689 600.7C521.689 613.758 532.046 624.345 544.823 624.345Z" fill="#CCCCCC"/>
<path id="Path 139" d="M598.252 584.936C597.229 584.936 596.249 585.351 595.526 586.09C594.803 586.829 594.396 587.831 594.396 588.876C594.396 589.921 594.803 590.924 595.526 591.663C596.249 592.402 597.229 592.817 598.252 592.817H780.022C781.045 592.817 782.025 592.402 782.748 591.663C783.471 590.924 783.878 589.921 783.878 588.876C783.878 587.831 783.471 586.829 782.748 586.09C782.025 585.351 781.045 584.936 780.022 584.936H598.252Z" fill="#CCCCCC"/>
<path id="Path 140" d="M598.252 608.582C597.229 608.582 596.249 608.997 595.526 609.736C594.803 610.475 594.396 611.478 594.396 612.523C594.396 613.568 594.803 614.57 595.526 615.309C596.249 616.048 597.229 616.463 598.252 616.463H676.468C677.491 616.463 678.472 616.048 679.195 615.309C679.918 614.57 680.324 613.568 680.324 612.523C680.324 611.478 679.918 610.475 679.195 609.736C678.472 608.997 677.491 608.582 676.468 608.582H598.252Z" fill="#CCCCCC"/>
</g>
<g id="msgBox2">
<path id="Path 135" d="M750.393 557.161L469.642 428.872C468.264 428.241 467.184 427.082 466.637 425.651C466.09 424.221 466.121 422.634 466.725 421.239L497.286 350.811C497.893 349.418 499.021 348.332 500.423 347.792C501.825 347.251 503.388 347.301 504.767 347.929L785.518 476.217C786.895 476.849 787.976 478.007 788.523 479.438C789.07 480.869 789.038 482.456 788.435 483.85L757.874 554.278C757.267 555.671 756.139 556.756 754.737 557.297C753.334 557.837 751.772 557.788 750.393 557.16L750.393 557.161ZM503.856 350.028C503.029 349.652 502.093 349.623 501.253 349.947C500.412 350.271 499.736 350.921 499.372 351.755L468.81 422.183C468.45 423.019 468.431 423.97 468.759 424.827C469.087 425.685 469.734 426.379 470.559 426.759L751.31 555.047C752.137 555.423 753.073 555.452 753.913 555.128C754.754 554.805 755.43 554.154 755.794 553.319L786.353 482.899C786.713 482.063 786.732 481.112 786.404 480.254C786.076 479.397 785.429 478.702 784.604 478.323L503.856 350.028Z" fill="#CCCCCC"/>
<path id="Ellipse 17" d="M522.848 427.366C534.578 432.735 548.261 427.455 553.408 415.573C558.556 403.691 553.22 389.707 541.489 384.338C529.759 378.969 516.077 384.249 510.929 396.131C505.782 408.013 511.118 421.997 522.848 427.366Z" fill="#CCCCCC"/>
<path id="Path 136" d="M587.236 413.672C586.301 413.246 585.242 413.212 584.291 413.577C583.34 413.943 582.575 414.677 582.165 415.62C581.754 416.562 581.732 417.635 582.103 418.603C582.474 419.571 583.208 420.354 584.143 420.779L750.323 496.487C751.258 496.913 752.318 496.947 753.269 496.581C754.22 496.216 754.985 495.481 755.395 494.539C755.805 493.596 755.827 492.523 755.456 491.555C755.085 490.588 754.352 489.805 753.417 489.379L587.236 413.672Z" fill="#CCCCCC"/>
<path id="Path 137" d="M577.822 435.287C576.887 434.86 575.827 434.826 574.876 435.192C573.924 435.558 573.159 436.293 572.749 437.237C572.339 438.181 572.317 439.255 572.688 440.224C573.059 441.193 573.793 441.976 574.728 442.403L646.257 475.02C647.192 475.446 648.252 475.48 649.204 475.114C650.155 474.749 650.92 474.013 651.331 473.069C651.741 472.126 651.763 471.051 651.392 470.083C651.021 469.114 650.287 468.33 649.352 467.903L577.822 435.287Z" fill="#CCCCCC"/>
</g>
<g id="msgBox1">
<path id="Path 138_2" d="M519.553 340.656L213.946 368.375C212.446 368.509 210.956 368.033 209.805 367.051C208.653 366.069 207.933 364.661 207.803 363.137L201.322 286.095C201.196 284.57 201.67 283.054 202.64 281.88C203.61 280.706 204.998 279.969 206.498 279.831L512.105 252.112C513.605 251.978 515.094 252.454 516.246 253.436C517.398 254.418 518.117 255.825 518.248 257.35L524.728 334.39C524.855 335.915 524.381 337.431 523.411 338.606C522.441 339.78 521.053 340.518 519.553 340.656V340.656ZM206.691 282.127C205.792 282.21 204.961 282.652 204.379 283.356C203.798 284.06 203.513 284.968 203.588 285.882L210.069 362.923C210.148 363.836 210.58 364.679 211.27 365.268C211.96 365.856 212.852 366.142 213.752 366.062L519.359 338.344C520.258 338.26 521.089 337.818 521.67 337.115C522.252 336.411 522.536 335.502 522.461 334.588L515.981 257.555C515.902 256.642 515.471 255.798 514.78 255.21C514.09 254.621 513.198 254.335 512.298 254.415L206.691 282.127Z" fill="#CCCCCC"/>
<path id="Ellipse 18_2" d="M259.479 340.179C272.226 339.02 281.676 327.555 280.587 314.571C279.497 301.587 268.28 292.001 255.533 293.16C242.785 294.319 233.335 305.784 234.425 318.768C235.514 331.752 246.732 341.338 259.479 340.179Z" fill="#CCCCCC"/>
<path id="Path 139_2" d="M309.38 296.33C308.361 296.422 307.419 296.917 306.76 297.707C306.102 298.497 305.78 299.517 305.868 300.543C305.955 301.568 306.443 302.516 307.224 303.176C308.006 303.837 309.018 304.157 310.036 304.065L491.093 287.792C492.111 287.7 493.054 287.205 493.712 286.415C494.371 285.625 494.692 284.605 494.605 283.579C494.518 282.553 494.03 281.606 493.248 280.945C492.466 280.285 491.455 279.965 490.436 280.056L309.38 296.33Z" fill="#CCCCCC"/>
<path id="Path 140_2" d="M311.393 319.849C310.374 319.941 309.432 320.438 308.773 321.231C308.114 322.025 307.793 323.049 307.88 324.079C307.967 325.109 308.456 326.06 309.237 326.723C310.019 327.386 311.031 327.707 312.049 327.615L389.966 320.584C390.984 320.492 391.927 319.995 392.585 319.202C393.244 318.409 393.565 317.384 393.478 316.355C393.391 315.325 392.903 314.373 392.121 313.71C391.339 313.047 390.328 312.726 389.309 312.818L311.393 319.849Z" fill="#CCCCCC"/>
</g>
<g id="women">
<path id="Ellipse 21" d="M457.555 90.4826C476.945 90.4826 492.663 74.4169 492.663 54.5988C492.663 34.7807 476.945 18.715 457.555 18.715C438.166 18.715 422.447 34.7807 422.447 54.5988C422.447 74.4169 438.166 90.4826 457.555 90.4826Z" fill="#2F2E41"/>
<path id="Ellipse 22" d="M458.268 93.6523C472.699 93.6523 484.398 81.695 484.398 66.945C484.398 52.1949 472.699 40.2376 458.268 40.2376C443.837 40.2376 432.138 52.1949 432.138 66.945C432.138 81.695 443.837 93.6523 458.268 93.6523Z" fill="#FEB8B8"/>
<path id="Path 159" d="M497.983 105.706C497.983 105.706 450.108 97.0068 419.256 107.881L428.299 181.279L426.171 193.241L490.004 191.066L485.748 179.105L497.983 105.706Z" fill="#FEB8B8"/>
<path id="Path 160" d="M464.714 184.914C453.692 184.779 442.684 184.067 431.734 182.778C429.485 182.525 427.411 181.419 425.921 179.678C424.432 177.938 423.636 175.689 423.69 173.377L424.467 139.052L424.557 138.918C433.806 125.225 429.301 115.223 425.834 109.838C425.102 108.701 424.713 107.369 424.715 106.008V106.008C424.183 105.247 424.063 106.449 424.395 105.596C424.559 105.173 424.823 104.799 425.164 104.507C425.505 104.214 425.913 104.014 426.349 103.924L431.63 102.845C432.263 102.716 432.922 102.827 433.481 103.157C434.041 103.487 434.463 104.015 434.67 104.64C436.445 110.052 443.361 127.466 459.21 127.461C472.45 127.461 477.39 108.311 477.686 103.886C477.734 103.2 478.034 102.559 478.526 102.09C479.018 101.622 479.666 101.361 480.338 101.361H486.934C487.352 101.351 487.766 101.437 488.147 101.613C488.527 101.789 488.864 102.049 489.132 102.376C489.461 102.793 489.661 103.299 489.707 103.832C489.753 104.364 489.644 104.899 489.392 105.368C481.864 119.515 492.865 141.904 492.977 142.122L493.047 142.263L489.943 175.203C489.755 177.136 488.98 178.959 487.725 180.418C486.47 181.876 484.8 182.896 482.949 183.334C478.15 184.485 471.663 184.914 464.714 184.914Z" fill="#CCCCCC"/>
<path id="Path 162" d="M492.131 210.639C492.131 210.639 541.07 204.115 537.878 230.212C534.687 256.309 497.451 274.795 441.065 230.212L447.449 217.163C447.449 217.163 479.365 225.862 492.131 219.338V210.639Z" fill="#2F2E41"/>
<path id="Path 161" d="M403.959 261.344C396.81 261.344 390.265 260.539 385.065 258.637C378.884 256.377 375.003 252.721 373.528 247.764C372.831 245.657 372.623 243.414 372.92 241.211C373.216 239.009 374.009 236.906 375.237 235.07C384.381 221.076 416.112 217.129 420.37 216.662L422.625 197.451C422.892 195.234 423.933 193.19 425.557 191.695C427.181 190.199 429.278 189.353 431.463 189.311L484.903 188.458C487.05 188.405 489.144 189.142 490.804 190.535C492.464 191.927 493.579 193.883 493.946 196.045L496.983 213.117L461.941 230.488L467.239 245.652L466.893 245.888C456.637 252.875 427.143 261.343 403.959 261.344Z" fill="#2F2E41"/>
<path id="Path 163" d="M448.513 220.426C448.513 220.426 448.513 207.377 437.874 208.464C427.235 209.552 408.085 210.639 408.085 210.639C408.085 210.639 401.702 214.989 410.213 217.163C418.724 219.338 444.257 230.212 444.257 230.212L448.513 220.426Z" fill="#FEB8B8"/>
<path id="Path 164" d="M466.598 218.251C466.598 218.251 466.598 205.202 477.237 206.289C487.876 207.377 507.026 208.464 507.026 208.464C507.026 208.464 513.409 212.814 504.898 214.989C496.387 217.163 470.854 228.037 470.854 228.037L466.598 218.251Z" fill="#FEB8B8"/>
<path id="Path 166" d="M422.979 107.337C422.979 107.337 411.277 105.162 408.085 123.648C404.893 142.134 401.702 161.707 401.702 161.707L385.828 217.954C383.955 218.97 382.404 220.509 381.356 222.392C380.308 224.275 379.805 226.424 379.908 228.588C380.01 230.752 380.712 232.842 381.933 234.613C383.153 236.385 384.842 237.764 386.801 238.592C388.76 239.419 390.909 239.659 392.997 239.284C395.085 238.909 397.025 237.935 398.592 236.476C400.158 235.016 401.286 233.131 401.843 231.04C402.4 228.95 402.364 226.741 401.739 224.671L422.979 164.973L425.107 137.788V110.856C425.107 110.125 424.908 109.409 424.532 108.788C424.156 108.166 423.619 107.664 422.979 107.337Z" fill="#FEB8B8"/>
<path id="Path 165" d="M530.348 215.779L514.474 159.532C514.474 159.532 511.282 139.959 508.091 121.473C504.899 102.988 493.196 105.162 493.196 105.162L491.069 106.25V135.609L493.196 162.794L514.437 222.492C513.811 224.562 513.775 226.771 514.333 228.861C514.89 230.952 516.018 232.837 517.584 234.297C519.15 235.756 521.091 236.73 523.179 237.105C525.266 237.48 527.415 237.239 529.375 236.412C531.334 235.585 533.022 234.206 534.243 232.434C535.464 230.663 536.166 228.573 536.268 226.409C536.37 224.245 535.868 222.096 534.819 220.213C533.771 218.33 532.22 216.791 530.348 215.775V215.779Z" fill="#FEB8B8"/>
<path id="Path 167" d="M432.402 50.5385C442.607 56.9055 454.111 60.78 466.021 61.8603L462.477 57.5206C465.057 58.4951 467.772 59.0456 470.521 59.1517C471.897 59.1925 473.264 58.903 474.511 58.3065C475.758 57.7099 476.851 56.823 477.702 55.7166C478.397 54.5679 478.81 53.2644 478.906 51.9172C479.001 50.5699 478.777 49.2191 478.251 47.9799C477.171 45.508 475.49 43.3597 473.369 41.7393C469.608 38.6985 465.169 36.6559 460.449 35.7935C455.728 34.9312 450.872 35.276 446.313 36.7972C443.185 37.7515 440.382 39.5875 438.228 42.0949C437.169 43.3576 436.434 44.8692 436.088 46.494C435.742 48.1188 435.796 49.8059 436.246 51.4041" fill="#2F2E41"/>
<path id="Path 168" d="M460.86 22.6981C452.618 14.1561 442.645 7.56441 431.642 3.3871C424.579 0.713211 416.892 -0.939588 409.508 0.579494C402.125 2.09858 395.146 7.3213 393.082 14.7242C391.398 20.7788 393.137 27.2988 395.751 32.9989C398.365 38.699 401.856 43.9815 403.97 49.8969C406.128 55.9301 406.777 62.4186 405.859 68.7733C404.941 75.1281 402.484 81.1478 398.712 86.2859C394.94 91.424 389.973 95.5178 384.26 98.1956C378.547 100.873 372.271 102.05 366 101.62C373.255 102.613 379.942 106.099 387.034 107.954C394.126 109.809 402.495 109.683 407.765 104.49C413.34 98.9969 413.452 90.064 413.182 82.1532L411.98 46.8729C411.775 40.8759 411.601 34.6854 413.717 29.0875C415.833 23.4897 420.862 18.5877 426.734 18.6388C431.184 18.678 435.121 21.4323 438.691 24.1497C442.26 26.8671 446.031 29.7661 450.469 30.1695C454.906 30.5729 459.962 27.2216 459.63 22.685" fill="#2F2E41"/>
</g>
<g id="plant">
<path id="Rectangle 1" d="M926 648.365H0V650.54H926V648.365Z" fill="#CCCCCC"/>
<g id="Group 16">
<path id="Path 133" d="M886.516 599.686C886.092 615.856 883.442 631.884 878.644 647.297C878.537 647.655 878.419 648.007 878.304 648.365H848.927C848.958 648.044 848.99 647.687 849.021 647.297C850.98 624.282 839.79 485.871 826.287 461.916C827.47 463.859 888.794 526.555 886.516 599.686Z" fill="#CCCCCC"/>
<path id="Path 134" d="M884.312 647.297C884.066 647.655 883.811 648.013 883.549 648.365H861.51C861.677 648.061 861.87 647.703 862.095 647.297C865.735 640.582 876.511 620.502 886.514 599.686C897.259 577.316 907.126 554.098 906.295 545.695C906.552 547.589 913.991 605.367 884.312 647.297Z" fill="#CCCCCC"/>
</g>
</g>
</g>
<defs>
<clipPath id="clip0">
<rect width="926" height="651" fill="white"/>
</clipPath>
</defs>
</svg>
